<svg width="512" height="309" viewBox="0 0 512 309" fill="none" xmlns="http://www.w3.org/2000/svg">
<path d="M120.81 80.5613H217.378V88.2367H129.662V146.004H212.148V153.679H129.662V217.102H218.384V224.777H120.81V80.5613ZM226.029 80.5613H236.29L281.757 143.984L328.23 80.5613L391.441 0L287.591 150.649L341.106 224.777H330.443L281.757 157.315L232.869 224.777H222.408L276.325 150.649L226.029 80.5613ZM344.928 88.2367V80.5613H454.976V88.2367H404.277V224.777H395.425V88.2367H344.928ZM0 80.5613H11.0651L163.646 308.884L100.592 224.777L9.25442 91.4684L8.85206 224.777H0V80.5613ZM454.084 214.785C452.275 214.785 450.919 213.384 450.919 211.573C450.919 209.762 452.275 208.361 454.084 208.361C455.914 208.361 457.249 209.762 457.249 211.573C457.249 213.384 455.914 214.785 454.084 214.785ZM462.782 206.335H467.519C467.583 208.9 469.456 210.625 472.212 210.625C475.291 210.625 477.035 208.771 477.035 205.3V183.31H481.858V205.321C481.858 211.573 478.241 215.174 472.255 215.174C466.636 215.174 462.782 211.681 462.782 206.335ZM488.166 206.054H492.946C493.355 209.008 496.24 210.883 500.395 210.883C504.271 210.883 507.113 208.878 507.113 206.119C507.113 203.748 505.304 202.325 501.192 201.355L497.187 200.385C491.568 199.069 489.006 196.353 489.006 191.783C489.006 186.242 493.527 182.556 500.309 182.556C506.617 182.556 511.225 186.242 511.505 191.481H506.811C506.359 188.614 503.862 186.824 500.245 186.824C496.434 186.824 493.893 188.657 493.893 191.459C493.893 193.68 495.529 194.952 499.577 195.9L503 196.741C509.373 198.229 512 200.816 512 205.494C512 211.444 507.393 215.174 500.029 215.174C493.14 215.174 488.511 211.616 488.166 206.054Z" fill="white"/>
</svg>
