<svg width="2500" height="1504" viewBox="0 0 2500 1504" fill="none" xmlns="http://www.w3.org/2000/svg">
<path d="M1250 2C916.67 2 708.33 168.67 625 502C750 335.33 895.83 272.83 1062.5 314.5C1157.59 338.27 1225.56 407.264 1300.79 483.621C1423.35 608.025 1565.19 752 1875 752C2208.33 752 2416.67 585.33 2500 252C2375 418.67 2229.17 481.17 2062.5 439.5C1967.41 415.73 1899.44 346.736 1824.21 270.379C1701.65 145.975 1559.81 2 1250 2ZM625 752C291.67 752 83.3301 918.67 0 1252C125 1085.33 270.83 1022.83 437.5 1064.5C532.588 1088.27 600.557 1157.26 675.791 1233.62C798.35 1358.03 940.186 1502 1250 1502C1583.33 1502 1791.67 1335.33 1875 1002C1750 1168.67 1604.17 1231.17 1437.5 1189.5C1342.41 1165.73 1274.44 1096.74 1199.21 1020.38C1076.65 895.975 934.814 752 625 752Z" fill="url(#paint0_linear)"/>
<defs>
<linearGradient id="paint0_linear" x1="-69.45" y1="482" x2="2089.71" y2="1726.93" gradientUnits="userSpaceOnUse">
<stop stop-color="#2298BD"/>
<stop offset="1" stop-color="#0ED7B5"/>
</linearGradient>
</defs>
</svg>
