<svg width="32" height="32" viewBox="0 0 32 32" fill="none" xmlns="http://www.w3.org/2000/svg">
<path d="M13.1959 19.3908C13.1959 19.8626 13.2588 20.2046 13.3846 20.4169C13.5183 20.6292 13.7306 20.7904 14.0215 20.9005L13.2549 23.3538C12.5157 23.2831 11.8906 23.1219 11.3795 22.8703C10.8762 22.6108 10.4791 22.2215 10.1882 21.7026C9.70855 22.2766 9.09521 22.7051 8.3482 22.9882C7.6012 23.2634 6.83846 23.401 6.06 23.401C4.77043 23.401 3.74034 23.0354 2.96974 22.3041C2.20701 21.565 1.82564 20.6174 1.82564 19.4615C1.82564 18.1012 2.35641 17.0515 3.41795 16.3123C4.48735 15.5732 5.98923 15.2036 7.92359 15.2036H9.61026V14.7318C9.61026 13.4501 8.78461 12.8092 7.13333 12.8092C6.73231 12.8092 6.21726 12.8682 5.58821 12.9862C4.95915 13.0962 4.33009 13.2574 3.70103 13.4697L2.84 10.9928C3.64991 10.6862 4.49128 10.4542 5.3641 10.2969C6.24479 10.1397 7.03111 10.061 7.72308 10.061C9.58667 10.061 10.9627 10.4424 11.8513 11.2051C12.7477 11.96 13.1959 13.053 13.1959 14.4841V19.3908ZM7.34564 20.7354C7.74667 20.7354 8.16735 20.6174 8.60769 20.3815C9.04803 20.1378 9.38222 19.7957 9.61026 19.3554V17.3267H8.69026C7.65231 17.3267 6.88957 17.4879 6.40205 17.8103C5.91453 18.1248 5.67077 18.5887 5.67077 19.2021C5.67077 19.6817 5.81624 20.0591 6.10718 20.3344C6.40598 20.6017 6.8188 20.7354 7.34564 20.7354ZM20.5289 11.7595C20.922 11.2405 21.3938 10.8277 21.9442 10.521C22.5025 10.2144 23.1001 10.061 23.7371 10.061C25.349 10.061 26.5206 10.6586 27.2519 11.8538C27.9911 13.0491 28.3606 14.665 28.3606 16.7015C28.3606 17.9911 28.168 19.1431 27.7827 20.1574C27.4053 21.1639 26.843 21.9581 26.096 22.54C25.349 23.114 24.433 23.401 23.3478 23.401C22.0347 23.401 21.0006 22.8899 20.2458 21.8677L20.1042 23H16.8017V5.49641L20.5289 5.10718V11.7595ZM22.3689 20.6882C23.0294 20.6882 23.5523 20.3855 23.9376 19.78C24.3229 19.1667 24.5155 18.1562 24.5155 16.7487C24.5155 15.7108 24.433 14.9087 24.2678 14.3426C24.1106 13.7685 23.8825 13.3715 23.5837 13.1513C23.2928 12.9232 22.9507 12.8092 22.5576 12.8092C22.1408 12.8092 21.7673 12.939 21.4371 13.1985C21.1068 13.4579 20.8041 13.8118 20.5289 14.26V19.5441C20.7647 19.9137 21.0282 20.1968 21.3191 20.3933C21.61 20.5899 21.96 20.6882 22.3689 20.6882Z" fill="#FFF"/>
</svg>
