<svg width="32" height="32" viewBox="0 0 32 32" fill="none" xmlns="http://www.w3.org/2000/svg">
<rect width="32" height="32" rx="5" fill="black"/>
<path d="M14.3703 21.2836C14.3703 21.7554 14.4332 22.0974 14.559 22.3097C14.6927 22.522 14.905 22.6832 15.1959 22.7933L14.4293 25.2466C13.6901 25.1759 13.065 25.0147 12.5539 24.7631C12.0506 24.5036 11.6535 24.1143 11.3626 23.5954C10.8829 24.1694 10.2696 24.5979 9.52256 24.881C8.77556 25.1562 8.01282 25.2938 7.23436 25.2938C5.94479 25.2938 4.9147 24.9282 4.1441 24.1969C3.38137 23.4578 3 22.5102 3 21.3543C3 19.994 3.53077 18.9443 4.59231 18.2051C5.66171 17.466 7.16359 17.0964 9.09795 17.0964H10.7846V16.6246C10.7846 15.3429 9.95897 14.702 8.30769 14.702C7.90667 14.702 7.39162 14.761 6.76257 14.879C6.13351 14.989 5.50445 15.1502 4.87539 15.3625L4.01436 12.8856C4.82427 12.579 5.66564 12.347 6.53846 12.1897C7.41915 12.0325 8.20547 11.9538 8.89744 11.9538C10.761 11.9538 12.1371 12.3352 13.0257 13.0979C13.9221 13.8528 14.3703 14.9458 14.3703 16.3769V21.2836ZM8.52 22.6282C8.92103 22.6282 9.34171 22.5102 9.78205 22.2743C10.2224 22.0306 10.5566 21.6885 10.7846 21.2482V19.2195H9.86462C8.82667 19.2195 8.06393 19.3807 7.57641 19.7031C7.08889 20.0176 6.84513 20.4815 6.84513 21.0949C6.84513 21.5745 6.9906 21.9519 7.28154 22.2272C7.58034 22.4945 7.99316 22.6282 8.52 22.6282ZM21.7033 13.6523C22.0964 13.1333 22.5682 12.7205 23.1186 12.4138C23.6769 12.1072 24.2745 11.9538 24.9115 11.9538C26.5234 11.9538 27.695 12.5514 28.4263 13.7466C29.1655 14.9419 29.535 16.5578 29.535 18.5943C29.535 19.8839 29.3424 21.0359 28.9571 22.0502C28.5797 23.0567 28.0174 23.8509 27.2704 24.4328C26.5234 25.0068 25.6074 25.2938 24.5222 25.2938C23.2091 25.2938 22.175 24.7827 21.4202 23.7605L21.2786 24.8928H17.9761V7.38923L21.7033 7V13.6523ZM23.5433 22.581C24.2038 22.581 24.7267 22.2783 25.112 21.6728C25.4973 21.0595 25.6899 20.049 25.6899 18.6415C25.6899 17.6036 25.6074 16.8015 25.4422 16.2354C25.285 15.6613 25.0569 15.2643 24.7581 15.0441C24.4672 14.816 24.1251 14.702 23.732 14.702C23.3152 14.702 22.9417 14.8318 22.6115 15.0913C22.2812 15.3507 21.9785 15.7046 21.7033 16.1528V21.4369C21.9391 21.8065 22.2026 22.0896 22.4935 22.2861C22.7844 22.4827 23.1344 22.581 23.5433 22.581Z" fill="white"/>
</svg>
