<?xml version="1.0" encoding="utf-8"?>
<!-- Generator: Adobe Illustrator 15.0.0, SVG Export Plug-In . SVG Version: 6.00 Build 0)  -->
<!DOCTYPE svg PUBLIC "-//W3C//DTD SVG 1.1//EN" "http://www.w3.org/Graphics/SVG/1.1/DTD/svg11.dtd">
<svg version="1.1" id="Layer_1" xmlns="http://www.w3.org/2000/svg" xmlns:xlink="http://www.w3.org/1999/xlink" x="0px" y="0px"
	 width="435px" height="199.999px" viewBox="-0.478 0 435 199.999" enable-background="new -0.478 0 435 199.999"
	 xml:space="preserve">
<g id="XMLID_339_">
	<g id="XMLID_137_" opacity="0.1">
		<path id="XMLID_81_" fill="#020202" d="M414.698,38.512L414.698,38.512c0,12.73-10.318,23.05-23.049,23.05h-53.866l0,0
			c0,17.702-14.35,32.051-32.05,32.051h-44.426c-9.874,0-17.881,8.005-17.881,17.883l0,0c0,9.874,8.007,17.879,17.881,17.879
			h154.073c10.307,0,18.663,8.356,18.663,18.663l0,0c0,10.307-8.356,18.663-18.663,18.663H314.984
			c-15.955,0-28.886,12.956-28.849,28.914l0,0l-195.062,0.411l0.575-34.211H22.35C10.006,161.816,0,151.811,0,139.469l0,0
			c0-12.344,10.006-22.351,22.35-22.351h53.779c11.38,0,20.608-9.228,20.608-20.609l0,0c0-11.381-9.228-20.609-20.608-20.609h-4.984
			c-16.689,0-30.22-13.528-30.22-30.22l0,0c0-16.689,13.531-30.22,30.22-30.22h320.505C404.38,15.461,414.698,25.782,414.698,38.512
			z"/>
	</g>
	<g id="XMLID_184_">
		<g id="XMLID_186_">
			<path id="XMLID_737_" fill="#0686D8" d="M174.757,39.229h-8.6c-0.833,0-1.508-0.675-1.508-1.508s0.676-1.509,1.508-1.509h8.6
				c0.833,0,1.509,0.676,1.509,1.509S175.59,39.229,174.757,39.229z"/>
		</g>
		<g id="XMLID_185_">
			<path id="XMLID_736_" fill="#0686D8" d="M170.458,43.529c-0.833,0-1.509-0.676-1.509-1.509v-8.599
				c0-0.833,0.676-1.509,1.509-1.509c0.833,0,1.508,0.676,1.508,1.509v8.599C171.966,42.852,171.291,43.529,170.458,43.529z"/>
		</g>
	</g>
	<g id="XMLID_286_">
		<g id="XMLID_303_">
			<path id="XMLID_735_" fill="#0686D8" d="M380.184,102.431h-8.602c-0.833,0-1.509-0.677-1.509-1.51
				c0-0.832,0.677-1.508,1.509-1.508h8.602c0.832,0,1.509,0.676,1.509,1.508C381.693,101.753,381.016,102.431,380.184,102.431z"/>
		</g>
		<g id="XMLID_301_">
			<path id="XMLID_734_" fill="#0686D8" d="M375.883,106.728c-0.834,0-1.509-0.676-1.509-1.508v-8.599
				c0-0.833,0.676-1.509,1.509-1.509s1.509,0.676,1.509,1.509v8.599C377.392,106.052,376.716,106.728,375.883,106.728z"/>
		</g>
	</g>
	<g id="XMLID_133_">
		<g id="XMLID_138_">
			<path id="XMLID_733_" fill="#0686D8" d="M247.85,10.634c-0.385,0-0.771-0.147-1.066-0.442c-0.59-0.59-0.59-1.545,0-2.134
				l6.081-6.081c0.589-0.59,1.545-0.59,2.133,0c0.591,0.589,0.591,1.544,0,2.133l-6.08,6.081
				C248.622,10.487,248.235,10.634,247.85,10.634z"/>
		</g>
		<g id="XMLID_136_">
			<path id="XMLID_732_" fill="#0686D8" d="M253.93,10.634c-0.386,0-0.771-0.147-1.065-0.442l-6.081-6.081
				c-0.59-0.589-0.59-1.544,0-2.133c0.59-0.59,1.545-0.59,2.134,0l6.08,6.081c0.591,0.589,0.591,1.544,0,2.134
				C254.702,10.487,254.315,10.634,253.93,10.634z"/>
		</g>
	</g>
	<g id="XMLID_307_">
		<g id="XMLID_309_">
			<path id="XMLID_731_" fill="#0686D8" d="M102.653,83.727c-0.386,0-0.772-0.147-1.066-0.442c-0.589-0.589-0.589-1.544,0-2.133
				l6.081-6.081c0.59-0.589,1.544-0.589,2.134,0c0.589,0.59,0.589,1.544,0,2.134l-6.081,6.08
				C103.425,83.579,103.039,83.727,102.653,83.727z"/>
		</g>
		<g id="XMLID_308_">
			<path id="XMLID_730_" fill="#0686D8" d="M108.733,83.727c-0.386,0-0.772-0.147-1.067-0.442l-6.081-6.081
				c-0.589-0.59-0.589-1.544,0-2.134c0.589-0.589,1.544-0.589,2.133,0l6.081,6.081c0.589,0.589,0.589,1.544,0,2.133
				C109.505,83.579,109.119,83.727,108.733,83.727z"/>
		</g>
	</g>
	<g id="XMLID_135_">
		<rect id="XMLID_729_" x="110.306" y="36.212" fill="#0686D8" width="34.997" height="3.018"/>
	</g>
	<g id="XMLID_266_">
		<rect id="XMLID_728_" x="327.834" y="99.412" fill="#0686D8" width="34.995" height="3.019"/>
	</g>
	<g id="XMLID_335_">
		<rect id="XMLID_727_" x="273.383" y="31.911" fill="#0686D8" width="66.816" height="3.017"/>
	</g>
	<g id="XMLID_414_">
		<rect id="XMLID_726_" x="150.373" y="4.577" fill="#0686D8" width="89.902" height="3.018"/>
	</g>
	<g id="XMLID_306_">
		<rect id="XMLID_725_" x="20.243" y="77.667" fill="#0686D8" width="77.243" height="3.018"/>
	</g>
	<g id="XMLID_304_">
		<rect id="XMLID_724_" x="341.374" y="80.094" fill="#0686D8" width="69.017" height="3.017"/>
	</g>
	<g id="XMLID_105_">
		<rect id="XMLID_723_" x="148.32" y="36.212" fill="#0686D8" width="7.183" height="3.018"/>
	</g>
	<g id="XMLID_104_">
		<circle id="XMLID_82_" fill="#0686D8" cx="54.927" cy="139.294" r="2.392"/>
	</g>
	<g id="XMLID_327_">
		<circle id="XMLID_84_" fill="#0686D8" cx="408" cy="99.223" r="2.39"/>
	</g>
	<g id="XMLID_329_">
		<circle id="XMLID_85_" fill="#0686D8" cx="317.69" cy="50.823" r="2.391"/>
	</g>
	<g id="XMLID_332_">
		<circle id="XMLID_86_" fill="#0686D8" cx="111.704" cy="10.522" r="3.475"/>
	</g>
	<g id="XMLID_324_">
		<circle id="XMLID_87_" fill="#0686D8" cx="201" cy="24.441" r="2.392"/>
	</g>
	<g id="XMLID_256_">
		<circle id="XMLID_89_" fill="#0686D8" cx="80.965" cy="96.178" r="3.046"/>
	</g>
	<g id="XMLID_326_">
		<circle id="XMLID_90_" fill="#0686D8" cx="365.876" cy="141.687" r="3.046"/>
	</g>
	<g id="XMLID_330_">
		<circle id="XMLID_91_" fill="#0686D8" cx="345.332" cy="3.045" r="3.046"/>
	</g>
	<g id="XMLID_95_">
		<g id="XMLID_116_">
			<path fill="#5FB0E5" d="M310.734,154.254H148.005v-92.82c0-2.193,1.776-3.971,3.971-3.971h154.79
				c2.192,0,3.969,1.778,3.969,3.971V154.254L310.734,154.254z"/>
		</g>
		<g id="XMLID_115_">
			<path id="XMLID_722_" fill="#0686D8" d="M149.514,105.972h-3.019V65.332c0-5.171,4.207-9.377,9.377-9.377h38.453v3.017h-38.453
				c-3.506,0-6.359,2.853-6.359,6.359V105.972z"/>
		</g>
		<g id="XMLID_112_">
			<path id="XMLID_721_" fill="#0686D8" d="M312.242,111.732h-3.018v-46.4c0-3.507-2.852-6.359-6.356-6.359h-34.703v-3.017h34.703
				c5.171,0,9.374,4.207,9.374,9.377V111.732L312.242,111.732z"/>
		</g>
		<g id="XMLID_109_">
			<rect x="156.835" y="66.927" fill="#FFFFFF" width="145.251" height="76.45"/>
		</g>
		<g id="XMLID_106_">
			<rect x="204.856" y="168.924" fill="#FFFFFF" width="49.027" height="29.023"/>
		</g>
		<g id="XMLID_103_">
			<rect x="204.856" y="168.924" fill="#9ECFEF" width="49.027" height="14.513"/>
		</g>
		<g id="XMLID_102_">
			<path id="XMLID_718_" fill="#0686D8" d="M255.393,199.457h-52.045v-32.041h52.045V199.457z M206.365,196.439h46.009v-26.006
				h-46.009V196.439z"/>
		</g>
		<g id="XMLID_101_">
			<path fill="#FFFFFF" d="M310.734,150.699H148.005v17.954c0,2.222,1.801,4.024,4.022,4.024h154.683
				c2.225,0,4.023-1.803,4.023-4.024V150.699z"/>
		</g>
		<g id="XMLID_98_">
			<rect id="XMLID_717_" x="192.264" y="171.167" fill="#0686D8" width="89.299" height="3.019"/>
		</g>
		<g id="XMLID_97_">
			<rect id="XMLID_716_" x="193.271" y="149.192" fill="#0686D8" width="89.299" height="3.017"/>
		</g>
		<g id="XMLID_96_">
			<rect id="XMLID_715_" x="195.324" y="196.981" fill="#0686D8" width="68.731" height="3.018"/>
		</g>
	</g>
	<g id="XMLID_75_">
		<g id="XMLID_802_">
			<path fill="#5FB0E5" d="M186.986,193.822H74.062c-1.105,0-2.012-0.906-2.012-2.013v-80.035c0-1.106,0.907-2.011,2.012-2.011
				h112.924c1.107,0,2.012,0.904,2.012,2.011v80.035C188.998,192.916,188.093,193.822,186.986,193.822z"/>
		</g>
		<g id="XMLID_801_">
			<rect id="XMLID_714_" x="163.257" y="108.253" fill="#0686D8" width="8.077" height="3.018"/>
		</g>
		<g id="XMLID_93_">
			<path id="XMLID_713_" fill="#0686D8" d="M73.56,188.903h-3.017v-76.233c0-2.435,1.98-4.416,4.414-4.416h83.125v3.018H74.956
				c-0.77,0-1.396,0.626-1.396,1.398V188.903z"/>
		</g>
		<g id="XMLID_92_">
			<path id="XMLID_712_" fill="#0686D8" d="M186.092,195.332v-3.018c0.77,0,1.397-0.627,1.397-1.396v-78.248
				c0-0.77-0.627-1.396-1.397-1.396h-11.354v-3.018h11.354c2.435,0,4.414,1.981,4.414,4.414v78.248
				C190.506,193.351,188.526,195.332,186.092,195.332z"/>
		</g>
		<g id="XMLID_799_">
			<rect x="77.729" y="116.376" fill="#FFFFFF" width="104.954" height="68.214"/>
		</g>
		<g id="XMLID_798_">
			<path id="XMLID_100_" fill="#FFFFFF" d="M186.954,198.49H72.805c-2.742,0-5.079-1.985-5.521-4.689l-0.813-4.959h52.906
				l2.025,2.906h14.619l2.188-2.906h55.734l-0.708,4.312C192.73,196.231,190.072,198.49,186.954,198.49z"/>
		</g>
		<g id="XMLID_797_">
			<path id="XMLID_708_" fill="#0686D8" d="M186.954,199.999H72.805c-3.497,0-6.446-2.506-7.011-5.955l-1.1-6.711h55.47l2.024,2.906
				h13.078l2.189-2.906h58.262l-0.993,6.065C194.098,197.223,190.83,199.999,186.954,199.999z M68.247,190.35l0.526,3.206
				c0.325,1.986,2.021,3.425,4.032,3.425h114.149c2.391,0,4.406-1.71,4.792-4.07l0.421-2.561h-53.207l-2.188,2.906h-16.16
				l-2.024-2.906H68.247z"/>
		</g>
	</g>
	<g id="XMLID_139_">
		<g id="XMLID_284_">
			<path fill="#FFFFFF" d="M285.748,194.64v-75.095c0-2.124,1.724-3.848,3.847-3.848h51.891c2.125,0,3.846,1.724,3.846,3.848v75.095
				c0,2.126-1.721,3.85-3.846,3.85h-51.891C287.471,198.49,285.748,196.766,285.748,194.64z"/>
		</g>
		<g id="XMLID_283_">
			<path id="XMLID_707_" fill="#0686D8" d="M341.485,199.999h-51.891c-2.952,0-5.355-2.403-5.355-5.358v-75.095
				c0-2.954,2.403-5.355,5.355-5.355h51.891c2.952,0,5.354,2.401,5.354,5.355v4.363h-3.018v-4.363c0-1.289-1.05-2.338-2.337-2.338
				h-51.891c-1.288,0-2.337,1.049-2.337,2.338v75.095c0,1.292,1.049,2.341,2.337,2.341h51.891c1.287,0,2.337-1.049,2.337-2.341
				v-50.426h3.018v50.426C346.84,197.595,344.437,199.999,341.485,199.999z"/>
		</g>
		<g id="XMLID_281_">
			<rect id="XMLID_706_" x="343.822" y="132.072" fill="#0686D8" width="3.018" height="6.706"/>
		</g>
		<g id="XMLID_251_">
			<rect id="XMLID_705_" x="307.89" y="120.622" fill="#0686D8" width="15.3" height="3.018"/>
		</g>
		<g id="XMLID_248_">
			<rect x="290.845" y="126.417" fill="#D2E9F7" width="49.391" height="60.548"/>
		</g>
		<g id="XMLID_143_">
			<path id="XMLID_701_" fill="#0686D8" d="M315.539,194.513c-2.02,0-3.66-1.643-3.66-3.66c0-2.017,1.641-3.66,3.66-3.66
				s3.66,1.644,3.66,3.66C319.199,192.871,317.559,194.513,315.539,194.513z M315.539,190.21c-0.354,0-0.643,0.288-0.643,0.643
				s0.289,0.644,0.643,0.644c0.354,0,0.643-0.289,0.643-0.644C316.182,190.5,315.894,190.21,315.539,190.21z"/>
		</g>
	</g>
	<g id="XMLID_290_">
		<g id="XMLID_300_">
			<path id="XMLID_130_" fill="#5FB0E5" d="M131.211,127.12v24.337l0.012,0.014l17.171,17.219c4.402-4.389,7.13-10.456,7.149-17.159
				c0-0.024,0.004-0.049,0.004-0.072C155.548,138.017,144.651,127.12,131.211,127.12z"/>
		</g>
		<g id="XMLID_299_">
			<path id="XMLID_131_" fill="#9ECFEF" d="M112.843,134.226c-4.408,4.396-7.138,10.471-7.15,17.186l24.335,0.059v-0.015v-24.338
				C123.32,127.12,117.246,129.835,112.843,134.226z"/>
		</g>
		<g id="XMLID_295_">
			<path id="XMLID_132_" fill="#D2E9F7" d="M130.041,152.653l-0.012-0.002l-24.335-0.058c0,0.016-0.002,0.031-0.002,0.047
				c0,13.441,10.896,24.338,24.339,24.338c6.708,0,12.782-2.716,17.184-7.107L130.041,152.653z"/>
		</g>
		<g id="XMLID_570_">
			<path id="XMLID_698_" fill="#0686D8" d="M130.207,178.486c-15.128,0-27.436-12.307-27.436-27.435
				c0-15.127,12.308-27.435,27.436-27.435s27.435,12.308,27.435,27.435C157.642,166.179,145.335,178.486,130.207,178.486z
				 M130.207,126.634c-13.464,0-24.418,10.955-24.418,24.417c0,13.465,10.954,24.417,24.418,24.417
				c13.464,0,24.417-10.952,24.417-24.417C154.624,137.587,143.671,126.634,130.207,126.634z"/>
		</g>
		<g id="XMLID_294_">
			<polygon id="XMLID_697_" fill="#0686D8" points="146.155,169.764 129.588,153.468 104.3,153.468 104.3,150.452 130.825,150.452 
				148.271,167.611 			"/>
		</g>
		<g id="XMLID_291_">
			<rect id="XMLID_696_" x="127.675" y="124.634" fill="#0686D8" width="3.017" height="26.836"/>
		</g>
	</g>
	<g id="XMLID_323_">
		<rect id="XMLID_1047_" x="198.608" y="42.216" fill="#5FB0E5" width="18.024" height="101.454"/>
	</g>
	<g id="XMLID_319_">
		<rect id="XMLID_1046_" x="198.608" y="42.216" fill="#7FC0EA" width="9.013" height="101.454"/>
	</g>
	<g id="XMLID_317_">
		<polygon id="XMLID_695_" fill="#0686D8" points="218.141,143.669 215.124,143.669 215.124,43.724 200.117,43.724 200.117,143.669 
			197.099,143.669 197.099,40.707 218.141,40.707 		"/>
	</g>
	<g id="XMLID_316_">
		<rect x="222.039" y="26.832" fill="#D2E9F7" width="18.023" height="116.837"/>
	</g>
	<g id="XMLID_315_">
		<rect x="222.039" y="26.832" fill="#E4F2FA" width="9.013" height="116.837"/>
	</g>
	<g id="XMLID_313_">
		<polygon id="XMLID_694_" fill="#0686D8" points="241.572,143.669 238.554,143.669 238.554,28.341 223.548,28.341 223.548,143.669 
			220.53,143.669 220.53,25.324 241.572,25.324 		"/>
	</g>
	<g id="XMLID_312_">
		<rect id="XMLID_1045_" x="246.385" y="14.684" fill="#9ECFEF" width="18.023" height="128.985"/>
	</g>
	<g id="XMLID_311_">
		<rect id="XMLID_1044_" x="246.385" y="14.684" fill="#C5E2F5" width="9.012" height="128.985"/>
	</g>
	<g id="XMLID_310_">
		<polygon id="XMLID_693_" fill="#0686D8" points="265.917,143.669 262.899,143.669 262.899,16.192 247.894,16.192 247.894,143.669 
			244.876,143.669 244.876,13.174 265.917,13.174 		"/>
	</g>
	<g id="XMLID_250_">
		<g id="XMLID_626_">
			<polygon id="XMLID_134_" fill="#5FB0E5" points="290.88,163.329 290.88,186.851 301.53,186.823 301.53,154.41 			"/>
		</g>
		<g id="XMLID_625_">
			<polygon id="XMLID_140_" fill="#5FB0E5" points="310.828,158.506 310.801,158.492 310.801,186.803 323.022,186.772 
				323.022,149.408 			"/>
		</g>
		<g id="XMLID_623_">
			<polygon id="XMLID_141_" fill="#9ECFEF" points="301.61,154.343 301.53,154.41 301.53,186.823 310.801,186.803 310.801,158.492 
							"/>
		</g>
		<g id="XMLID_622_">
			<polygon id="XMLID_142_" fill="#5FB0E5" points="340.198,145.421 330.608,153.68 330.608,186.751 340.198,186.728 			"/>
		</g>
		<g id="XMLID_621_">
			<polygon id="XMLID_144_" fill="#9ECFEF" points="330.608,153.68 323.022,149.408 323.022,186.772 330.608,186.751 			"/>
		</g>
		<g id="XMLID_619_">
			<polygon id="XMLID_692_" fill="#0686D8" points="292.475,164.092 290.88,164.092 290.88,161.074 291.367,161.074 
				301.272,152.647 310.604,156.757 322.911,147.612 330.428,151.846 338.985,144.476 340.187,144.464 340.207,146.742 
				340.533,147.123 340.212,147.399 340.214,147.482 340.116,147.482 330.789,155.515 323.134,151.204 310.995,160.227 
				301.787,156.171 			"/>
		</g>
	</g>
	<g id="XMLID_99_">
		<g id="XMLID_189_">
			<rect id="XMLID_691_" x="42.01" y="196.981" fill="#0686D8" width="329.572" height="3.018"/>
		</g>
		<g id="XMLID_188_">
			<rect id="XMLID_690_" x="32.831" y="196.981" fill="#0686D8" width="5.512" height="3.018"/>
		</g>
		<g id="XMLID_187_">
			<rect id="XMLID_689_" x="374.726" y="196.981" fill="#0686D8" width="12.171" height="3.018"/>
		</g>
	</g>
</g>
</svg>
