<?xml version="1.0" encoding="UTF-8"?>
<svg xmlns="http://www.w3.org/2000/svg" xmlns:xlink="http://www.w3.org/1999/xlink" width="435pt" height="363pt" viewBox="0 0 435 363" version="1.1">
<defs>
<filter id="alpha" filterUnits="objectBoundingBox" x="0%" y="0%" width="100%" height="100%">
  <feColorMatrix type="matrix" in="SourceGraphic" values="0 0 0 0 1 0 0 0 0 1 0 0 0 0 1 0 0 0 1 0"/>
</filter>
<mask id="mask0">
  <g filter="url(#alpha)">
<rect x="0" y="0" width="435" height="363" style="fill:rgb(0%,0%,0%);fill-opacity:0.14902;stroke:none;"/>
  </g>
</mask>
<clipPath id="clip1">
  <rect width="435" height="363"/>
</clipPath>
<g id="surface6" clip-path="url(#clip1)">
<path style=" stroke:none;fill-rule:nonzero;fill:rgb(0%,0%,0%);fill-opacity:1;" d="M 169.339844 257.09375 L 132.367188 235.417969 C 132.367188 235.417969 131.71875 233.304688 130.617188 229.742188 C 130.066406 227.960938 129.398438 225.804688 128.640625 223.363281 C 124.371094 209.65625 117.214844 187.046875 111.476562 170.527344 C 102.683594 145.230469 145.558594 215.621094 145.558594 215.621094 L 147.703125 217.28125 L 148.550781 224.945312 C 151.507812 225.277344 153.253906 225.519531 153.253906 225.519531 C 161.136719 233.644531 166.214844 244.722656 169.339844 257.09375 Z M 169.339844 257.09375 "/>
</g>
</defs>
<g id="surface1">
<path style=" stroke:none;fill-rule:nonzero;fill:rgb(42.352941%,38.823529%,100%);fill-opacity:1;" d="M 410.953125 116.121094 C 410.953125 131.230469 407.375 143.667969 401.171875 154.320312 C 399.121094 157.828125 396.796875 161.167969 394.21875 164.308594 C 371.40625 192.21875 328.996094 207.496094 290.667969 232.238281 C 177.523438 305.277344 165.269531 188.238281 170.378906 116.121094 C 172.441406 87.019531 183.769531 60.367188 201.765625 39.957031 C 205.546875 35.664062 209.628906 31.648438 213.984375 27.941406 C 234.414062 10.535156 260.8125 0 290.667969 0 C 341.894531 0 385.636719 30.910156 402.980469 74.464844 C 408.253906 87.71875 410.960938 101.855469 410.953125 116.121094 Z M 410.953125 116.121094 "/>
<path style=" stroke:none;fill-rule:nonzero;fill:rgb(81.568627%,80.392157%,88.235294%);fill-opacity:1;" d="M 316.296875 26.171875 L 201.765625 39.957031 C 205.546875 35.664062 209.628906 31.648438 213.984375 27.941406 Z M 316.296875 26.171875 "/>
<path style=" stroke:none;fill-rule:nonzero;fill:rgb(81.568627%,80.392157%,88.235294%);fill-opacity:1;" d="M 401.171875 154.320312 C 399.121094 157.828125 396.796875 161.167969 394.21875 164.308594 L 296.113281 152.503906 Z M 401.171875 154.320312 "/>
<path style=" stroke:none;fill-rule:nonzero;fill:rgb(81.568627%,80.392157%,88.235294%);fill-opacity:1;" d="M 406.984375 86.441406 L 240.71875 64.867188 L 402.980469 74.464844 C 404.539062 78.378906 405.875 82.375 406.984375 86.441406 Z M 406.984375 86.441406 "/>
<path style=" stroke:none;fill-rule:nonzero;fill:rgb(42.352941%,38.823529%,100%);fill-opacity:1;" d="M 181.65625 30.929688 C 181.65625 31.226562 181.648438 31.519531 181.625 31.808594 C 181.269531 36.6875 177.992188 40.867188 173.335938 42.375 C 168.683594 43.882812 163.578125 42.417969 160.429688 38.671875 C 157.28125 34.925781 156.71875 29.644531 159 25.316406 C 159.261719 24.820312 159.554688 24.34375 159.886719 23.894531 C 162.832031 19.808594 168.011719 17.992188 172.863281 19.34375 C 177.710938 20.695312 181.207031 24.929688 181.613281 29.953125 C 181.644531 30.273438 181.65625 30.601562 181.65625 30.929688 Z M 181.65625 30.929688 "/>
<path style=" stroke:none;fill-rule:nonzero;fill:rgb(81.568627%,80.392157%,88.235294%);fill-opacity:1;" d="M 181.65625 30.929688 C 181.65625 31.226562 181.648438 31.519531 181.625 31.808594 L 163.621094 29.640625 L 181.613281 29.953125 C 181.644531 30.273438 181.65625 30.601562 181.65625 30.929688 Z M 181.65625 30.929688 "/>
<path style=" stroke:none;fill-rule:nonzero;fill:rgb(81.568627%,80.392157%,88.235294%);fill-opacity:1;" d="M 177.363281 36.992188 L 160.710938 39 C 160.238281 38.472656 159.8125 37.902344 159.441406 37.300781 Z M 177.363281 36.992188 "/>
<path style=" stroke:none;fill-rule:nonzero;fill:rgb(81.568627%,80.392157%,88.235294%);fill-opacity:1;" d="M 172.640625 23.675781 L 159 25.316406 C 159.261719 24.820312 159.554688 24.34375 159.886719 23.894531 Z M 172.640625 23.675781 "/>
<path style=" stroke:none;fill-rule:nonzero;fill:rgb(42.352941%,38.823529%,100%);fill-opacity:1;" d="M 346.441406 247.496094 C 346.300781 247.757812 346.15625 248.011719 346 248.253906 C 343.398438 252.398438 338.542969 254.554688 333.726562 253.703125 C 328.910156 252.851562 325.085938 249.164062 324.0625 244.378906 C 323.035156 239.59375 325.011719 234.664062 329.058594 231.910156 C 329.519531 231.59375 330.003906 231.3125 330.503906 231.070312 C 335.023438 228.84375 340.449219 229.667969 344.097656 233.136719 C 347.75 236.605469 348.851562 241.984375 346.859375 246.609375 C 346.734375 246.910156 346.59375 247.203125 346.441406 247.496094 Z M 346.441406 247.496094 "/>
<path style=" stroke:none;fill-rule:nonzero;fill:rgb(81.568627%,80.392157%,88.235294%);fill-opacity:1;" d="M 346.441406 247.496094 C 346.300781 247.757812 346.15625 248.011719 346 248.253906 L 331.113281 237.898438 L 346.859375 246.609375 C 346.734375 246.910156 346.59375 247.203125 346.441406 247.496094 Z M 346.441406 247.496094 "/>
<path style=" stroke:none;fill-rule:nonzero;fill:rgb(81.568627%,80.392157%,88.235294%);fill-opacity:1;" d="M 339.804688 250.835938 L 324.15625 244.800781 C 323.984375 244.113281 323.875 243.410156 323.828125 242.703125 Z M 339.804688 250.835938 "/>
<path style=" stroke:none;fill-rule:nonzero;fill:rgb(81.568627%,80.392157%,88.235294%);fill-opacity:1;" d="M 341.875 236.859375 L 329.058594 231.910156 C 329.519531 231.59375 330.003906 231.3125 330.503906 231.070312 Z M 341.875 236.859375 "/>
<path style=" stroke:none;fill-rule:nonzero;fill:rgb(42.352941%,38.823529%,100%);fill-opacity:1;" d="M 431.597656 40.144531 C 431.804688 40.359375 432.003906 40.574219 432.183594 40.796875 C 435.335938 44.539062 435.90625 49.820312 433.628906 54.152344 C 431.347656 58.480469 426.671875 60.996094 421.804688 60.515625 C 416.933594 60.03125 412.84375 56.644531 411.460938 51.949219 C 411.300781 51.414062 411.179688 50.867188 411.101562 50.316406 C 410.359375 45.332031 412.796875 40.414062 417.214844 37.996094 C 421.632812 35.574219 427.085938 36.164062 430.882812 39.476562 C 431.128906 39.683594 431.367188 39.910156 431.597656 40.144531 Z M 431.597656 40.144531 "/>
<path style=" stroke:none;fill-rule:nonzero;fill:rgb(81.568627%,80.392157%,88.235294%);fill-opacity:1;" d="M 431.597656 40.144531 C 431.804688 40.359375 432.003906 40.574219 432.183594 40.796875 L 417.789062 51.820312 L 430.882812 39.476562 C 431.128906 39.683594 431.367188 39.910156 431.597656 40.144531 Z M 431.597656 40.144531 "/>
<path style=" stroke:none;fill-rule:nonzero;fill:rgb(81.568627%,80.392157%,88.235294%);fill-opacity:1;" d="M 432.753906 47.484375 L 422.234375 60.550781 C 421.527344 60.503906 420.824219 60.394531 420.140625 60.226562 Z M 432.753906 47.484375 "/>
<path style=" stroke:none;fill-rule:nonzero;fill:rgb(81.568627%,80.392157%,88.235294%);fill-opacity:1;" d="M 420.078125 41.25 L 411.460938 51.949219 C 411.300781 51.414062 411.179688 50.867188 411.101562 50.316406 Z M 420.078125 41.25 "/>
<path style=" stroke:none;fill-rule:nonzero;fill:rgb(62.745098%,38.039216%,41.568627%);fill-opacity:1;" d="M 206.027344 261.8125 C 206.027344 261.8125 232.410156 262.914062 232.410156 269.511719 C 232.410156 276.109375 202.726562 269.511719 202.726562 269.511719 Z M 206.027344 261.8125 "/>
<path style=" stroke:none;fill-rule:nonzero;fill:rgb(18.431373%,18.039216%,25.490196%);fill-opacity:1;" d="M 166.449219 362.996094 L 116.972656 359.699219 L 114.773438 333.300781 L 103.78125 356.398438 L 55.40625 349.800781 C 56.507812 308.003906 74.097656 267.3125 75.195312 261.8125 C 76.296875 256.3125 78.921875 233.589844 78.921875 233.589844 C 83.726562 223.394531 108.902344 222.4375 128.640625 223.363281 C 136.820312 223.734375 144.074219 224.441406 148.550781 224.945312 C 151.507812 225.277344 153.253906 225.519531 153.253906 225.519531 C 161.136719 233.644531 166.214844 244.722656 169.339844 257.09375 C 180.597656 301.671875 166.449219 362.996094 166.449219 362.996094 Z M 166.449219 362.996094 "/>
<path style=" stroke:none;fill-rule:nonzero;fill:rgb(62.745098%,38.039216%,41.568627%);fill-opacity:1;" d="M 138.960938 80.339844 C 138.960938 95.523438 126.65625 107.835938 111.476562 107.835938 C 96.296875 107.835938 83.992188 95.523438 83.992188 80.339844 C 83.992188 65.152344 96.296875 52.84375 111.476562 52.84375 C 126.65625 52.84375 138.960938 65.152344 138.960938 80.339844 Z M 138.960938 80.339844 "/>
<path style=" stroke:none;fill-rule:nonzero;fill:rgb(62.745098%,38.039216%,41.568627%);fill-opacity:1;" d="M 92.785156 86.9375 C 92.785156 86.9375 85.089844 121.03125 72.996094 130.929688 C 60.902344 140.832031 120.273438 130.929688 120.273438 130.929688 C 120.273438 130.929688 107.078125 108.933594 116.972656 99.035156 C 126.867188 89.136719 92.785156 86.9375 92.785156 86.9375 Z M 92.785156 86.9375 "/>
<path style=" stroke:none;fill-rule:nonzero;fill:rgb(81.568627%,80.392157%,88.235294%);fill-opacity:1;" d="M 148.855469 227.71875 L 130.617188 229.742188 L 79.59375 235.417969 C 79.59375 235.417969 79.351562 234.765625 78.921875 233.589844 C 75.21875 223.484375 57.375 174.296875 55.40625 159.527344 C 53.207031 143.03125 76.296875 123.234375 76.296875 123.234375 C 76.296875 123.234375 98.285156 118.832031 104.878906 118.832031 C 111.476562 118.832031 137.863281 128.730469 137.863281 128.730469 L 147.703125 217.28125 L 148.550781 224.945312 Z M 148.855469 227.71875 "/>
<use xlink:href="#surface6" mask="url(#mask0)"/>
<path style=" stroke:none;fill-rule:nonzero;fill:rgb(81.568627%,80.392157%,88.235294%);fill-opacity:1;" d="M 120.273438 130.929688 C 120.273438 130.929688 109.277344 145.230469 118.074219 170.527344 C 126.867188 195.820312 138.960938 235.417969 138.960938 235.417969 L 202.726562 272.8125 L 211.523438 261.8125 L 152.15625 215.621094 C 152.15625 215.621094 149.957031 132.03125 138.960938 128.730469 C 127.96875 125.433594 120.273438 130.929688 120.273438 130.929688 Z M 120.273438 130.929688 "/>
<path style=" stroke:none;fill-rule:nonzero;fill:rgb(62.745098%,38.039216%,41.568627%);fill-opacity:1;" d="M 65.851562 227.167969 C 65.851562 227.167969 81.242188 259.0625 87.839844 255.761719 C 94.4375 252.464844 71.347656 219.46875 71.347656 219.46875 Z M 65.851562 227.167969 "/>
<path style=" stroke:none;fill-rule:nonzero;fill:rgb(81.568627%,80.392157%,88.235294%);fill-opacity:1;" d="M 64.203125 139.730469 L 5.933594 188.125 C 5.933594 188.125 -16.054688 203.519531 24.625 214.519531 C 65.300781 225.519531 68.601562 232.117188 68.601562 232.117188 C 68.601562 232.117188 72.996094 217.820312 78.496094 220.019531 L 31.21875 196.921875 L 69.699219 173.824219 Z M 64.203125 139.730469 "/>
<path style=" stroke:none;fill-rule:nonzero;fill:rgb(18.431373%,18.039216%,25.490196%);fill-opacity:1;" d="M 40.785156 102.90625 C 43.84375 101.390625 50.59375 98.332031 56.347656 94.648438 C 55.945312 82.664062 57.417969 71.785156 61.738281 66.019531 C 64.160156 60.515625 69.25 55 73.238281 50.660156 C 83.027344 40 104.675781 34.050781 108.515625 39.375 C 137.554688 39.949219 140.609375 62.722656 140.609375 62.722656 C 140.460938 72.246094 130.566406 72.546875 121.898438 72.199219 C 122.671875 78.703125 120.605469 85.457031 114.613281 88.457031 C 103.160156 94.183594 99.722656 101.632812 105.449219 106.789062 C 111.175781 111.949219 121.488281 125.699219 107.742188 129.136719 C 93.996094 132.574219 92.277344 139.449219 96.285156 142.316406 C 100.296875 145.179688 87.121094 137.160156 87.121094 137.160156 C 87.121094 137.160156 84.832031 150.910156 72.800781 147.472656 C 71.722656 147.164062 70.648438 146.375 69.589844 145.195312 C 66.339844 148.765625 63.441406 150.875 61.257812 150.886719 C 48.75 150.953125 50.25 137.09375 50.25 137.09375 C 50.25 137.09375 35.402344 141.265625 40.035156 139.589844 C 44.667969 137.910156 44.867188 130.824219 32.554688 123.808594 C 20.246094 116.789062 33.878906 106.328125 40.785156 102.90625 Z M 40.785156 102.90625 "/>
<path style=" stroke:none;fill-rule:nonzero;fill:rgb(24.705882%,23.921569%,33.72549%);fill-opacity:1;" d="M 194.261719 138.832031 L 194.0625 138.808594 L 194.546875 140.65625 C 195.007812 143.238281 195.675781 145.777344 196.546875 148.25 L 210.8125 202.511719 C 211.742188 206.050781 214.683594 208.699219 218.296875 209.261719 L 247.394531 213.761719 C 251.25 214.359375 255.0625 212.457031 256.90625 209.015625 L 284.558594 157.347656 C 285.421875 155.914062 286.210938 154.441406 286.921875 152.925781 L 287.863281 151.171875 L 287.714844 151.152344 C 295.75 132.136719 290.984375 110.121094 275.804688 96.136719 C 260.621094 82.148438 238.296875 79.207031 220.011719 88.78125 C 201.730469 98.355469 191.425781 118.382812 194.261719 138.832031 Z M 194.261719 138.832031 "/>
<path style=" stroke:none;fill-rule:nonzero;fill:rgb(81.568627%,80.392157%,88.235294%);fill-opacity:1;" d="M 249.179688 217.308594 C 248.667969 217.308594 248.15625 217.269531 247.652344 217.191406 L 217.234375 212.484375 C 213.289062 211.871094 210.078125 208.976562 209.0625 205.113281 L 194.148438 148.398438 C 193.238281 145.800781 192.535156 143.132812 192.054688 140.425781 L 191.675781 137.945312 C 189.621094 121.875 195.234375 105.769531 206.832031 94.464844 C 218.433594 83.15625 234.671875 77.964844 250.675781 80.4375 L 250.542969 81.289062 C 234.710938 78.847656 218.65625 84.035156 207.242188 95.28125 C 195.828125 106.527344 190.402344 122.511719 192.601562 138.386719 L 192.890625 140.242188 C 193.371094 142.925781 194.066406 145.570312 194.96875 148.144531 L 209.894531 204.894531 C 210.820312 208.429688 213.757812 211.074219 217.367188 211.632812 L 247.78125 216.339844 C 251.632812 216.933594 255.4375 215.035156 257.277344 211.601562 L 258.035156 212.003906 C 256.285156 215.269531 252.882812 217.304688 249.179688 217.308594 Z M 249.179688 217.308594 "/>
<path style=" stroke:none;fill-rule:nonzero;fill:rgb(81.568627%,80.392157%,88.235294%);fill-opacity:1;" d="M 238.390625 201.714844 L 256.894531 151.167969 L 257.941406 151.550781 L 239.433594 202.097656 Z M 238.390625 201.714844 "/>
<path style=" stroke:none;fill-rule:nonzero;fill:rgb(81.568627%,80.392157%,88.235294%);fill-opacity:1;" d="M 225.570312 146.539062 L 226.679688 146.488281 L 229.042969 200.269531 L 227.933594 200.320312 Z M 225.570312 146.539062 "/>
<path style=" stroke:none;fill-rule:nonzero;fill:rgb(24.705882%,23.921569%,33.72549%);fill-opacity:1;" d="M 246.609375 243.019531 L 207.636719 236.988281 C 207.035156 236.894531 206.621094 236.328125 206.714844 235.722656 C 206.808594 235.117188 207.371094 234.703125 207.976562 234.792969 L 246.949219 240.824219 C 247.34375 240.882812 247.675781 241.148438 247.820312 241.519531 C 247.964844 241.890625 247.902344 242.3125 247.652344 242.621094 C 247.402344 242.933594 247.003906 243.085938 246.609375 243.019531 Z M 246.609375 243.019531 "/>
<path style=" stroke:none;fill-rule:nonzero;fill:rgb(24.705882%,23.921569%,33.72549%);fill-opacity:1;" d="M 247.609375 234.742188 L 208.636719 228.710938 C 208.242188 228.652344 207.910156 228.386719 207.765625 228.015625 C 207.621094 227.644531 207.683594 227.222656 207.9375 226.914062 C 208.1875 226.601562 208.582031 226.449219 208.976562 226.515625 L 247.949219 232.546875 C 248.34375 232.605469 248.675781 232.871094 248.820312 233.242188 C 248.964844 233.613281 248.902344 234.03125 248.648438 234.34375 C 248.398438 234.652344 248.003906 234.804688 247.609375 234.742188 Z M 247.609375 234.742188 "/>
<path style=" stroke:none;fill-rule:nonzero;fill:rgb(24.705882%,23.921569%,33.72549%);fill-opacity:1;" d="M 248.609375 226.460938 L 209.636719 220.429688 C 209.03125 220.335938 208.621094 219.769531 208.714844 219.164062 C 208.808594 218.558594 209.371094 218.144531 209.976562 218.234375 L 248.949219 224.265625 C 249.550781 224.363281 249.964844 224.929688 249.871094 225.53125 C 249.777344 226.136719 249.214844 226.550781 248.609375 226.460938 Z M 248.609375 226.460938 "/>
<path style=" stroke:none;fill-rule:nonzero;fill:rgb(24.705882%,23.921569%,33.72549%);fill-opacity:1;" d="M 225.914062 247.839844 C 233.644531 249.035156 240.574219 245.695312 241.398438 240.378906 L 213.402344 236.046875 C 212.582031 241.363281 218.183594 246.644531 225.914062 247.839844 Z M 225.914062 247.839844 "/>
<path style=" stroke:none;fill-rule:nonzero;fill:rgb(81.568627%,80.392157%,88.235294%);fill-opacity:1;" d="M 239.921875 140.515625 C 238.257812 140.261719 236.882812 138.945312 236.128906 138.0625 C 235.882812 137.773438 235.640625 137.476562 235.398438 137.175781 C 234.519531 136.082031 233.691406 135.046875 232.535156 134.507812 C 229.988281 133.320312 226.984375 134.980469 224.382812 136.765625 L 223.753906 135.847656 C 226.613281 133.886719 229.949219 132.074219 233.007812 133.503906 C 234.394531 134.148438 235.347656 135.335938 236.265625 136.480469 C 236.5 136.769531 236.734375 137.0625 236.972656 137.339844 C 237.757812 138.257812 239.320312 139.742188 240.996094 139.398438 C 241.703125 139.195312 242.359375 138.847656 242.925781 138.378906 C 243.359375 138.054688 243.816406 137.765625 244.292969 137.515625 C 246.273438 136.566406 248.625 136.898438 250.265625 138.359375 C 250.550781 138.628906 250.820312 138.917969 251.074219 139.214844 C 251.574219 139.785156 252.046875 140.324219 252.660156 140.519531 C 253.570312 140.808594 254.527344 140.292969 255.546875 139.742188 C 256.59375 139.175781 257.679688 138.589844 258.90625 138.734375 C 258.949219 138.738281 258.988281 138.746094 259.027344 138.75 C 261.214844 139.089844 262.222656 141.511719 262.796875 143.316406 L 261.734375 143.652344 C 260.960938 141.195312 260.015625 139.976562 258.777344 139.839844 C 257.898438 139.734375 257.011719 140.214844 256.074219 140.71875 C 254.898438 141.355469 253.679688 142.011719 252.324219 141.578125 C 251.414062 141.289062 250.816406 140.609375 250.242188 139.949219 C 250.011719 139.679688 249.769531 139.421875 249.515625 139.179688 C 248.210938 138.039062 246.355469 137.773438 244.785156 138.511719 C 244.359375 138.738281 243.953125 138.996094 243.566406 139.285156 C 242.878906 139.847656 242.078125 140.257812 241.21875 140.488281 C 240.792969 140.574219 240.351562 140.585938 239.921875 140.515625 Z M 239.921875 140.515625 "/>
</g>
</svg>
